<svg xmlns="http://www.w3.org/2000/svg" viewBox="0 0 1000 1000">
  <!-- Base gradient background -->
  <defs>
    <linearGradient id="baseGradient" x1="0%" y1="0%" x2="100%" y2="100%">
      <stop offset="0%" style="stop-color:#f3e8ff;stop-opacity:1" />
      <stop offset="100%" style="stop-color:#e0f2fe;stop-opacity:1" />
    </linearGradient>
    
    <!-- Pattern for repeating elements -->
    <pattern id="mentalHealthPattern" x="0" y="0" width="200" height="200" patternUnits="userSpaceOnUse">
      <!-- Heart symbol representing compassion -->
      <path d="M60 80 A20 20 0 0 1 100 80 A20 20 0 0 1 140 80 Q140 120 100 150 Q60 120 60 80Z" 
            fill="#d8b4fe" fill-opacity="0.2" />
      
      <!-- Spiral representing growth and progress -->
      <path d="M180 100 A40 40 0 0 1 140 140 A30 30 0 0 1 110 110 A20 20 0 0 1 140 80"
            fill="none" stroke="#93c5fd" stroke-width="2" stroke-opacity="0.2" />
      
      <!-- Connected circles representing community and support -->
      <circle cx="40" cy="160" r="15" fill="#bfdbfe" fill-opacity="0.2" />
      <circle cx="70" cy="160" r="15" fill="#bfdbfe" fill-opacity="0.2" />
      
      <!-- Rising sun symbol representing hope -->
      <path d="M160 40 L180 20 M160 40 L200 40 M160 40 L180 60" 
            stroke="#fde68a" stroke-width="2" stroke-opacity="0.2" />
    </pattern>
  </defs>
  
  <!-- Background rectangle with gradient -->
  <rect width="100%" height="100%" fill="url(#baseGradient)" />
  
  <!-- Pattern overlay -->
  <rect width="100%" height="100%" fill="url(#mentalHealthPattern)" />
</svg>
